<svg width="28" height="22" viewBox="0 0 28 22" fill="none" xmlns="http://www.w3.org/2000/svg">
<path d="M4.08701 21.8935H24.3618C25.5051 21.8935 26.3972 21.5596 27.0384 20.8918C27.6795 20.224 28 19.2169 28 17.8706V4.02291C28 2.67659 27.6581 1.66953 26.9742 1.00173C26.2904 0.333911 25.27 0 23.913 0H3.63823C2.49494 0 1.60275 0.333911 0.961646 1.00173C0.320549 1.66953 0 2.67659 0 4.02291V17.8706C0 19.2169 0.341917 20.224 1.02575 20.8918C1.70959 21.5596 2.73001 21.8935 4.08701 21.8935ZM3.99083 19.7138C3.41385 19.7138 2.97042 19.5589 2.66056 19.249C2.3507 18.9391 2.19577 18.4797 2.19577 17.8706V4.00686C2.19577 3.40852 2.3507 2.95441 2.66056 2.64455C2.97042 2.33467 3.41385 2.17973 3.99083 2.17973H23.9931C24.5701 2.17973 25.0162 2.33467 25.3314 2.64455C25.6466 2.95441 25.8042 3.41386 25.8042 4.02291V17.8867C25.8042 18.485 25.6466 18.9391 25.3314 19.249C25.0162 19.5589 24.5701 19.7138 23.9931 19.7138H3.99083ZM14.008 14.4247C14.4781 14.4247 14.9349 14.3232 15.3784 14.1202C15.8218 13.9172 16.2732 13.5913 16.7327 13.1425L26.8621 3.17345L25.3715 1.6829L15.5146 11.4436C15.2368 11.7107 14.9777 11.9084 14.7373 12.0366C14.4969 12.1649 14.2538 12.229 14.008 12.229C13.7516 12.229 13.5031 12.1649 13.2627 12.0366C13.0223 11.9084 12.7632 11.7107 12.4854 11.4436L2.56439 1.61879L1.08986 3.10934L11.2673 13.1425C11.7268 13.5913 12.1809 13.9172 12.6296 14.1202C13.0784 14.3232 13.5379 14.4247 14.008 14.4247ZM25.2593 20.1465L26.7338 18.672L18.7842 10.7384L17.3097 12.2129L25.2593 20.1465ZM1.26616 18.656L2.75674 20.1465L10.7063 12.2129L9.2158 10.7384L1.26616 18.656Z" fill="#007aff"/>
</svg>
