<svg width="24" height="24" viewBox="0 0 24 24" fill="none" xmlns="http://www.w3.org/2000/svg">
<path d="M17.8154 24C18.9231 24 19.8487 23.8437 20.5923 23.5311C21.3359 23.2185 22.0154 22.7137 22.6308 22.0167C22.6821 21.9552 22.7333 21.8937 22.7846 21.8322C22.8359 21.7707 22.8872 21.7143 22.9385 21.6631C23.2975 21.2428 23.5641 20.8328 23.7385 20.4331C23.9128 20.0333 24 19.6439 24 19.2646C24 18.8034 23.8615 18.3575 23.5846 17.927C23.3077 17.4965 22.8769 17.0814 22.2923 16.6817L18.7692 14.2217C18.2051 13.8323 17.6103 13.6349 16.9846 13.6298C16.359 13.6247 15.8 13.8681 15.3077 14.3601L14.3539 15.3133C14.2103 15.4568 14.0821 15.5337 13.9692 15.5439C13.8564 15.5542 13.7436 15.5183 13.6308 15.4363C13.2821 15.2108 12.8308 14.8495 12.2769 14.3524C11.7231 13.8553 11.241 13.4069 10.8308 13.0071C10.4205 12.5972 9.99743 12.1462 9.56153 11.6542C9.12563 11.1622 8.78974 10.7368 8.55385 10.3781C8.48206 10.2551 8.45128 10.1372 8.46153 10.0245C8.47181 9.91172 8.5436 9.78872 8.67692 9.65549L9.64616 8.68688C10.1385 8.1949 10.382 7.63886 10.3769 7.01875C10.3718 6.39864 10.1692 5.80159 9.76923 5.2276L7.32307 1.72219C6.91281 1.13796 6.4923 0.707462 6.06153 0.43071C5.63078 0.153959 5.18463 0.0104601 4.72308 0.000216294C3.95385 -0.0100275 3.15898 0.343595 2.33845 1.06108C2.27693 1.11232 2.21796 1.16613 2.16154 1.22249C2.10514 1.27887 2.04617 1.33268 1.98462 1.38392C1.28719 1.98867 0.782055 2.66516 0.469226 3.4134C0.156409 4.16162 0 5.08409 0 6.18081C0 7.92327 0.515386 9.81947 1.54616 11.8694C2.57692 13.9194 4.08718 15.9386 6.07694 17.927C7.40001 19.2492 8.74359 20.3613 10.1077 21.2633C11.4718 22.1653 12.8077 22.8469 14.1154 23.3081C15.4231 23.7694 16.6564 24 17.8154 24ZM17.8308 21.909C16.8051 21.9296 15.7026 21.7015 14.5231 21.2249C13.3436 20.7483 12.1615 20.1 10.9769 19.28C9.79231 18.46 8.68719 17.5324 7.66155 16.4972C6.61539 15.462 5.66667 14.3422 4.8154 13.1378C3.9641 11.9335 3.29231 10.7266 2.80001 9.5171C2.30769 8.30764 2.07179 7.19042 2.09231 6.16544C2.10256 5.50946 2.22564 4.90985 2.46155 4.36661C2.69744 3.82337 3.04616 3.35701 3.5077 2.96751C3.55898 2.92651 3.60256 2.89064 3.63846 2.85989C3.67436 2.82915 3.71795 2.79328 3.76925 2.75226C4.08718 2.48578 4.41025 2.35253 4.73846 2.35253C5.11796 2.35253 5.40514 2.50628 5.6 2.81379L7.93848 6.33456C8.05129 6.49855 8.10514 6.66767 8.10001 6.84192C8.09489 7.01617 8.0154 7.17504 7.86153 7.31854L6.75385 8.4255C6.30257 8.8765 6.08206 9.35569 6.09231 9.86305C6.10256 10.3704 6.27693 10.8393 6.6154 11.2698C6.99488 11.7618 7.45642 12.3102 8.00001 12.9149C8.5436 13.5196 9.02052 14.0219 9.43077 14.4216C9.69743 14.6984 10.0282 15.0187 10.4231 15.3825C10.818 15.7464 11.2205 16.1077 11.6308 16.4664C12.041 16.8252 12.4103 17.1327 12.7385 17.3889C13.1692 17.7169 13.6359 17.886 14.1385 17.8963C14.641 17.9065 15.118 17.6862 15.5692 17.2352L16.6769 16.1282C16.8308 15.9847 16.9923 15.9104 17.1615 15.9053C17.3308 15.9001 17.5026 15.9539 17.6769 16.0667L21.1846 18.4036C21.359 18.5061 21.4795 18.6317 21.5462 18.7803C21.6128 18.9289 21.6462 19.0852 21.6462 19.2492C21.6462 19.5772 21.5128 19.9052 21.2462 20.2332C21.2154 20.2742 21.1821 20.3152 21.1462 20.3562C21.1103 20.3972 21.0769 20.4382 21.0462 20.4792C20.6564 20.9507 20.1872 21.3018 19.6385 21.5324C19.0898 21.763 18.4872 21.8885 17.8308 21.909Z" fill="#007aff"/>
</svg>
