<svg id="Layer_1" data-name="Layer 1" xmlns="http://www.w3.org/2000/svg" viewBox="0 0 389.02 157.86"><defs><style>.cls-1{fill:#434fee;}.cls-2{fill:#436cee;}.cls-3{fill:#2b2b2b;}.cls-4{fill:#fff;}</style></defs><polygon class="cls-1" points="89.29 145.83 89.07 146.62 86.06 135.44 83.04 124.26 87.85 140.88 89.29 145.83"/><polygon class="cls-2" points="92.66 157.49 73.42 157.49 78.23 140.88 83.04 124.26 87.85 140.88 89.29 145.83 92.66 157.49"/><path class="cls-3" d="M148.15,313.68" transform="translate(-55.49 -176.14)"/><polygon class="cls-1" points="107.47 124.26 102.65 140.88 101.22 145.83 98.42 135.44 92.09 135.44 89.29 145.83 87.85 140.88 83.04 124.26 107.47 124.26"/><polygon class="cls-1" points="107.47 124.26 104.45 135.44 101.43 146.62 101.22 145.83 102.65 140.88 107.47 124.26"/><polygon class="cls-2" points="117.09 157.49 97.84 157.49 101.22 145.83 102.65 140.88 107.47 124.26 112.28 140.88 117.09 157.49"/><path class="cls-2" d="M245.46,303.2a10.56,10.56,0,0,0-7.94-3.53H227.13a10.15,10.15,0,0,0-10.38,9.92V324a9.7,9.7,0,0,0,2.93,6.91,10.62,10.62,0,0,0,7.45,3h10.39A10.16,10.16,0,0,0,247.9,324V309.59A9.63,9.63,0,0,0,245.46,303.2ZM230.1,324.44a4,4,0,0,1-3-1.36,3.86,3.86,0,0,1-.58-.81,4.55,4.55,0,0,1-.59-2.3v-6.5A4.31,4.31,0,0,1,230.1,309h4.16a3.81,3.81,0,0,1,2.26.73,4.17,4.17,0,0,1,.91.87,4.63,4.63,0,0,1,1,2.87V320a4.32,4.32,0,0,1-4.15,4.47Z" transform="translate(-55.49 -176.14)"/><path class="cls-1" d="M247.9,309.59V324a10.16,10.16,0,0,1-10.38,9.91H227.13a10.62,10.62,0,0,1-7.45-3l6.85-8.59a3.86,3.86,0,0,0,.58.81,4,4,0,0,0,3,1.36h4.16a4.32,4.32,0,0,0,4.15-4.47v-6.5a4.63,4.63,0,0,0-1-2.87,4.17,4.17,0,0,0-.91-.87l6.57-8.25,2.37,1.72A9.63,9.63,0,0,1,247.9,309.59Z" transform="translate(-55.49 -176.14)"/><polygon class="cls-1" points="34.05 129.51 18.85 129.51 12.95 124.26 28.15 124.26 34.05 129.51"/><polygon class="cls-1" points="12.83 157.49 28.02 157.49 33.93 152.24 18.73 152.24 12.83 157.49"/><polygon class="cls-2" points="17.47 140.88 26.21 157.49 8.74 157.49 0 140.88 8.74 124.26 26.21 124.26 17.47 140.88"/><polygon class="cls-2" points="155.35 143.18 144.57 149.75 133.79 143.18 133.79 130.02 144.57 123.45 155.35 130.02 155.35 143.18"/><polygon class="cls-1" points="144.57 123.96 144.57 149.75 133.79 143.18 133.79 130.02 144.57 123.45 144.57 123.96"/><rect class="cls-2" x="124.76" y="123.53" width="10.15" height="34"/><polygon class="cls-1" points="254.08 146.37 249.87 140.53 254.08 134.69 262.49 134.69 266.7 140.53 262.49 146.37 254.08 146.37"/><polygon class="cls-1" points="266.81 129.16 253.44 129.16 248.25 123.91 261.62 123.91 266.81 129.16"/><polygon class="cls-1" points="248.14 157.14 261.51 157.14 266.7 151.89 253.33 151.89 248.14 157.14"/><polygon class="cls-2" points="252.23 140.53 259.91 157.14 244.54 157.14 236.86 140.53 244.54 123.91 259.91 123.91 252.23 140.53"/><rect class="cls-2" x="316.12" y="122.58" width="34.57" height="7.83"/><rect class="cls-1" x="326.88" y="130.41" width="12.7" height="26.96"/><polygon class="cls-1" points="350.69 130.41 339.5 132.9 339.58 130.41 350.69 130.41"/><polygon class="cls-1" points="316.12 130.41 326.88 132.9 326.88 130.41 316.12 130.41"/><polygon class="cls-2" points="326.88 132.9 339.5 132.9 339.58 157.37 326.88 157.37 326.88 132.9"/><polygon class="cls-1" points="388.07 127.67 372.67 127.67 366.69 122.18 382.08 122.18 388.07 127.67"/><polygon class="cls-2" points="371.27 131.1 380.12 140.02 362.42 140.02 353.57 131.1 362.42 122.18 380.12 122.18 371.27 131.1"/><polygon class="cls-1" points="376.02 157.86 360.63 157.86 354.65 152.53 370.04 152.53 376.02 157.86"/><polygon class="cls-2" points="371.32 148.94 362.47 157.86 380.17 157.86 389.02 148.94 380.17 140.02 362.47 140.02 371.32 148.94"/><rect class="cls-2" x="23.5" y="102.52" width="339.82" height="6.69"/><polygon class="cls-2" points="279.79 157.37 272.03 157.37 280.65 123.68 288.41 123.68 279.79 157.37"/><polygon class="cls-2" points="299.8 157.37 289.99 157.37 300.89 123.68 310.7 123.68 299.8 157.37"/><polygon class="cls-1" points="290.19 157.37 298.64 157.37 289.25 123.68 280.81 123.68 290.19 157.37"/><polyline class="cls-2" points="284.77 137.91 283.14 157.37 279.79 157.37"/><polyline class="cls-2" points="294.64 143.01 296.43 123.68 300.89 123.68"/><polyline class="cls-2" points="303.85 157.14 308.93 129.16 299.8 157.37"/><polyline class="cls-2" points="280.81 123.68 276.05 123.68 273.43 154.52"/><polygon class="cls-2" points="202.98 157.72 195.22 157.72 203.84 124.03 211.6 124.03 202.98 157.72"/><polygon class="cls-2" points="222.99 157.72 213.18 157.72 224.08 124.03 233.89 124.03 222.99 157.72"/><polygon class="cls-1" points="213.38 157.72 221.83 157.72 212.44 124.03 204 124.03 213.38 157.72"/><polyline class="cls-2" points="207.96 138.26 206.33 157.72 202.98 157.72"/><polyline class="cls-2" points="217.83 143.36 219.63 124.03 224.08 124.03"/><polyline class="cls-2" points="227.04 157.49 232.12 129.51 222.99 157.72"/><polyline class="cls-2" points="204 124.03 199.24 124.03 196.62 154.87"/><path class="cls-2" d="M247.9,313.5V324a10.16,10.16,0,0,1-10.38,9.91h-5.79l.44-.58Z" transform="translate(-55.49 -176.14)"/><path class="cls-2" d="M121.94,303.2a10.56,10.56,0,0,0-7.94-3.53H103.61a10.15,10.15,0,0,0-10.38,9.92V324a9.7,9.7,0,0,0,2.93,6.91,10.62,10.62,0,0,0,7.45,3H114A10.16,10.16,0,0,0,124.38,324V309.59A9.63,9.63,0,0,0,121.94,303.2Zm-15.36,21.24a4,4,0,0,1-3-1.36,3.53,3.53,0,0,1-.58-.81,4.55,4.55,0,0,1-.59-2.3v-6.5a4.31,4.31,0,0,1,4.16-4.47h4.16a3.81,3.81,0,0,1,2.26.73,4.17,4.17,0,0,1,.91.87,4.63,4.63,0,0,1,1,2.87V320a4.32,4.32,0,0,1-4.15,4.47Z" transform="translate(-55.49 -176.14)"/><path class="cls-1" d="M124.38,309.59V324A10.16,10.16,0,0,1,114,333.86H103.61a10.62,10.62,0,0,1-7.45-3l6.85-8.59a3.53,3.53,0,0,0,.58.81,4,4,0,0,0,3,1.36h4.16a4.32,4.32,0,0,0,4.15-4.47v-6.5a4.63,4.63,0,0,0-1-2.87,4.17,4.17,0,0,0-.91-.87l6.57-8.25,2.37,1.72A9.63,9.63,0,0,1,124.38,309.59Z" transform="translate(-55.49 -176.14)"/><path class="cls-2" d="M124.38,313.5V324A10.16,10.16,0,0,1,114,333.86h-5.79l.44-.58Z" transform="translate(-55.49 -176.14)"/><path class="cls-2" d="M89.42,191.27l9.11-3.9v16l-9.11-4-8.94-3.9Zm0,17.81-8.94,4v-16l8.94,3.9,9.11,4.16Zm0,1.69,9.11-3.9v16l-9.11-4-8.94-3.9Zm0,17.81-8.94,4v-16l8.94,3.9,9.11,4.16Zm0,1.69,9.11-3.9v16l-9.11-4-8.94-3.9Zm0,17.81-8.94,4v-16l8.94,3.9,9.11,4.16Zm0,1.69,9.11-3.9v16l-9.11-4-8.94-3.9Zm0,17.81-8.94,4v-16l8.94,3.9,9.11,4.16ZM110,199.33l-8.94,4v-16l8.94,3.9,9.11,4.16Zm0,1.69,9.11-3.9v16l-9.11-4-8.94-3.9Zm20.63-9.75,9.11-3.9v16l-9.11-4-8.94-3.9Zm0,17.81-8.94,4v-16l8.94,3.9,9.11,4.16Zm20.63-27.56,9.11-3.9v16l-9.11-4-8.94-3.9Zm0,17.81-8.94,4v-16l8.94,3.9,9.11,4.16Zm0,1.69,9.11-3.9v16l-9.11-4-8.94-3.9Zm0,17.81-8.94,4v-16l8.94,3.9,9.11,4.16Zm0,1.69,9.11-3.9v16l-9.11-4-8.94-3.9Zm0,17.81-8.94,4v-16l8.94,3.9,9.11,4.16Zm0,1.69,9.11-3.9v16l-9.11-4-8.94-3.9Zm0,17.81-8.94,4v-16l8.94,3.9,9.11,4.16Z" transform="translate(-55.49 -176.14)"/><path class="cls-2" d="M177.94,191.27l9.12-3.9v16l-9.12-4-8.93-3.9Zm0,17.81-8.93,4v-16l8.93,3.9,9.12,4.16Zm0,1.69,9.12-3.9v16l-9.12-4-8.93-3.9Zm0,17.81-8.93,4v-16l8.93,3.9,9.12,4.16Zm0,1.69,9.12-3.9v16l-9.12-4-8.93-3.9Zm0,17.81-8.93,4v-16l8.93,3.9,9.12,4.16Zm0,1.69,9.12-3.9v16l-9.12-4-8.93-3.9Zm20.63-68.25,9.11-3.9v16l-9.11-4-8.94-3.9Zm0,17.81-8.94,4v-16l8.94,3.9,9.11,4.16Zm0,60.19,9.11-3.9v16l-9.11-4-8.94-3.9Zm20.63-69.94-8.94,4v-16l8.94,3.9,9.11,4.16Zm0,60.19,9.11-3.9v16l-9.11-4-8.94-3.9Zm0,17.81-8.94,4v-16l8.94,3.9,9.11,4.16Zm20.63-68.25-8.94,4v-16l8.94,3.9,9.11,4.16Zm0,1.69,9.11-3.9v16l-9.11-4-8.94-3.9Zm0,17.81-8.94,4v-16l8.94,3.9,9.11,4.16Zm0,1.69,9.11-3.9v16l-9.11-4-8.94-3.9Zm0,17.81-8.94,4v-16l8.94,3.9,9.11,4.16Zm0,1.69,9.11-3.9v16l-9.11-4-8.94-3.9Zm0,17.81-8.94,4v-16l8.94,3.9,9.11,4.16Z" transform="translate(-55.49 -176.14)"/><path class="cls-2" d="M266.47,191.14l9.11-3.9v16l-9.11-4.16-8.93-3.9Zm0,9.75-8.93-3.9v16l8.93-4.16,9.11-3.9Zm0,9.75,9.11-3.9v16l-9.11-4.16-8.93-3.9Zm0,9.75-8.93-3.9v16l8.93-4.16,9.11-3.9Zm0,9.75,9.11-3.9v16l-9.11-4.16-8.93-3.9Zm0,9.75-8.93-3.9v16l8.93-4.16,9.11-3.9Zm0,9.75,9.11-3.9v16l-9.11-4.16-8.93-3.9Zm20.63,17.69,9.11,4.16v-16l-9.11,3.9-8.94,4Zm20.63-17.69,9.11-3.9v16l-9.11-4.16-8.94-3.9Zm0,9.75-8.94-3.9v16l8.94-4.16,9.11-3.91Zm20.63-1.82-8.94,4.16v-16l8.94,3.9,9.11,4Z" transform="translate(-55.49 -176.14)"/><path class="cls-2" d="M353.87,198.13l8.34-3.57v14.63l-8.34-3.69-8.17-3.57Zm0,16.29-8.17,3.68V203.48l8.17,3.57,8.34,3.8Zm0,1.54,8.34-3.56V227l-8.34-3.68-8.17-3.57Zm0,16.29-8.17,3.69V221.31l8.17,3.57,8.34,3.81Zm0,1.55,8.34-3.57v14.63l-8.34-3.69-8.17-3.56Zm0,16.29-8.17,3.69V239.15l8.17,3.57,8.34,3.8Zm0,1.55,8.34-3.57V262.7L353.87,259l-8.17-3.57Zm18.87-62.43,8.34-3.57v14.63l-8.34-3.69L364.57,193Zm0,16.29-8.17,3.69V194.56l8.17,3.57,8.34,3.8Zm0,17.84L364.57,227V212.4l8.17,3.56,8.34,3.81Zm0,1.54,8.34-3.57v14.63l-8.34-3.69-8.17-3.56Zm0,16.29-8.17,3.69V230.23l8.17,3.57,8.34,3.81Zm0,19.39,8.34-3.57v14.63l-8.34-3.69-8.17-3.57Zm18.87-64-8.17,3.69V185.64l8.17,3.57L400,193Zm0,1.55,8.34-3.57v14.63l-8.34-3.69-8.17-3.57Zm0,53.51,8.34-3.57V262.7L391.61,259l-8.17-3.57Zm0,16.29-8.17,3.69V257l8.17,3.57,8.34,3.8Zm27.21-66-8.34,3.57-8.18,3.69V194.56l8.18,3.57Zm-8.34,5.12,8.34-3.57V218.1l-8.34-3.68-8.18-3.57Zm0,16.29L402.3,227V212.4l8.18,3.56,8.34,3.81Zm0,1.54,8.34-3.57v14.63l-8.34-3.69-8.18-3.56Zm0,16.29-8.18,3.69V230.23l8.18,3.57,8.34,3.81Zm0,1.55,8.34-3.57v14.63l-8.34-3.69-8.18-3.57Zm0,16.29-8.18,3.69V248.07l8.18,3.57,8.34,3.8Z" transform="translate(-55.49 -176.14)"/><polygon class="cls-4" points="85.55 8.02 103.85 0 105.96 0 105.96 19 83.86 8.73 85.55 8.02"/><polygon class="cls-4" points="308.89 17.05 327.53 26.01 308.01 35.88 308.01 17.01 308.89 17.05"/><polyline class="cls-2" points="306.19 16.78 290.61 8.71 290.61 23.54"/><polyline class="cls-2" points="307.88 16.13 324.21 8.71 307.88 1.58"/><polyline class="cls-2" points="306.75 0.73 291.83 7.61 306.02 15.09"/><polyline class="cls-4" points="92.66 127.86 91.03 123.53 99.95 123.53 98.35 127.86"/><polygon class="cls-4" points="147.79 138.71 144.57 140.57 141.34 138.71 141.34 134.99 144.57 133.12 147.79 134.99 147.79 138.71"/><polygon class="cls-4" points="308.47 36.26 329.7 36.26 329.7 70.06 308.47 76.62 307.17 36.26 308.47 36.26"/></svg>